<?xml version="1.0" encoding="UTF-8" standalone="no"?>
<svg
   xmlns:dc="http://purl.org/dc/elements/1.1/"
   xmlns:cc="http://creativecommons.org/ns#"
   xmlns:rdf="http://www.w3.org/1999/02/22-rdf-syntax-ns#"
   xmlns:svg="http://www.w3.org/2000/svg"
   xmlns="http://www.w3.org/2000/svg"
   version="1.1"
   id="_x32_"
   x="0px"
   y="0px"
   viewBox="0 0 512 512"
   style="width: 256px; height: 256px; opacity: 1;"
   xml:space="preserve"><metadata
   id="metadata15"><rdf:RDF><cc:Work
       rdf:about=""><dc:format>image/svg+xml</dc:format><dc:type
         rdf:resource="http://purl.org/dc/dcmitype/StillImage" /><dc:title></dc:title></cc:Work></rdf:RDF></metadata><defs
   id="defs13" />
<style
   type="text/css"
   id="style2">
	.st0{fill:#4B4B4B;}
</style>
<g
   id="g8"
   transform="matrix(1,0,0,0.94858376,0,3.9480293)">
	<path
   class="st0"
   d="m 511.58,252.219 c -0.403,-1.756 -0.807,-2.737 -1.17,-3.647 -0.727,-1.7 -1.424,-2.982 -2.239,-4.437 -3.006,-5.228 -7.831,-12.308 -14.444,-21.216 -9.872,-13.273 -23.469,-30.09 -38.871,-46.686 -15.417,-16.596 -32.518,-32.938 -49.93,-45.279 C 380.302,113.528 356.357,99.978 331.835,90.77 307.33,81.555 282.246,76.77 256,76.785 c -26.246,-0.015 -51.33,4.77 -75.836,13.986 -24.53,9.207 -48.466,22.758 -73.09,40.176 -25.899,18.407 -51.401,45.729 -71.098,69.459 -9.825,11.866 -18.106,22.798 -24.078,31.325 -2.999,4.272 -5.403,7.926 -7.254,11.011 -0.933,1.567 -1.716,2.966 -2.468,4.533 -0.38,0.799 -0.744,1.622 -1.147,2.777 -0.198,0.585 -0.412,1.265 -0.609,2.167 -0.19,0.91 -0.412,2.033 -0.42,3.781 0.008,1.741 0.229,2.872 0.42,3.781 0.395,1.756 0.807,2.729 1.17,3.646 0.728,1.701 1.424,2.983 2.239,4.43 3.006,5.229 7.831,12.316 14.444,21.223 9.864,13.274 23.469,30.098 38.871,46.695 15.417,16.596 32.519,32.93 49.93,45.27 24.624,17.426 48.561,30.969 73.09,40.184 24.506,9.208 49.59,14.001 75.836,13.985 26.246,0.016 51.33,-4.777 75.836,-13.985 24.522,-9.216 48.466,-22.758 73.091,-40.176 25.898,-18.408 51.401,-45.729 71.098,-69.46 9.824,-11.865 18.106,-22.797 24.078,-31.325 2.998,-4.279 5.402,-7.926 7.254,-11.019 0.934,-1.566 1.717,-2.966 2.468,-4.525 0.372,-0.799 0.744,-1.622 1.147,-2.785 0.198,-0.585 0.412,-1.257 0.609,-2.159 0.19,-0.91 0.412,-2.04 0.42,-3.781 -0.009,-1.747 -0.23,-2.87 -0.421,-3.78 z"
   style="fill:#6d5eff"
   id="path4" />
	
</g>
</svg>
