<?xml version="1.0" encoding="UTF-8" standalone="no"?>
<svg
   xmlns:dc="http://purl.org/dc/elements/1.1/"
   xmlns:cc="http://creativecommons.org/ns#"
   xmlns:rdf="http://www.w3.org/1999/02/22-rdf-syntax-ns#"
   xmlns:svg="http://www.w3.org/2000/svg"
   xmlns="http://www.w3.org/2000/svg"
   id="svg2630"
   version="1.1"
   viewBox="0 0 508.09619 135.35554"
   height="135.35555mm"
   width="508.09619mm">
  <defs
     id="defs2624">
    <clipPath
       id="clipPath4180"
       clipPathUnits="userSpaceOnUse">
      <circle
         r="65.293945"
         cy="187.42929"
         cx="94.063423"
         id="circle4182"
         style="opacity:1;fill:#ffffff;fill-opacity:1;stroke:none;stroke-width:1.29999995;stroke-linecap:butt;stroke-linejoin:bevel;stroke-miterlimit:4;stroke-dasharray:none;stroke-opacity:0.87234042" />
    </clipPath>
    <clipPath
       clipPathUnits="userSpaceOnUse"
       id="clipPath2582">
      <circle
         r="65.293945"
         cy="187.42929"
         cx="94.063423"
         id="circle2580"
         style="opacity:1;fill:#ffffff;fill-opacity:1;stroke:none;stroke-width:1.29999995;stroke-linecap:butt;stroke-linejoin:bevel;stroke-miterlimit:4;stroke-dasharray:none;stroke-opacity:0.87234042" />
    </clipPath>
    <clipPath
       id="clipPath4176"
       clipPathUnits="userSpaceOnUse">
      <circle
         r="65.293945"
         cy="187.42929"
         cx="94.063423"
         id="circle4178"
         style="opacity:1;fill:#ffffff;fill-opacity:1;stroke:none;stroke-width:1.29999995;stroke-linecap:butt;stroke-linejoin:bevel;stroke-miterlimit:4;stroke-dasharray:none;stroke-opacity:0.87234042" />
    </clipPath>
  </defs>
  <metadata
     id="metadata2627">
    <rdf:RDF>
      <cc:Work
         rdf:about="">
        <dc:format>image/svg+xml</dc:format>
        <dc:type
           rdf:resource="http://purl.org/dc/dcmitype/StillImage" />
        <dc:title />
      </cc:Work>
    </rdf:RDF>
  </metadata>
  <g
     transform="translate(5.2902101,-0.27120742)"
     style="display:inline"
     id="layer3">
    <g
       id="flowRoot4440"
       style="font-style:normal;font-weight:normal;font-size:40px;line-height:1.25;font-family:sans-serif;letter-spacing:0px;word-spacing:0px;display:inline;fill:#222222;fill-opacity:1;stroke:none"
       transform="scale(0.26458333)"
       aria-label="Serene">
      <path
         id="path5148"
         d="m 623.13281,84.398438 c -28.05965,0 -53.25,19.807352 -53.25,46.923832 0,12.02556 4.48047,23.57901 12.26172,30.88867 6.83807,6.60227 17.17277,9.19744 37.45117,15.32812 29.94602,9.19602 43.82032,17.44745 43.82032,36.54688 0,20.04261 -19.53304,34.66211 -39.33985,34.66211 -19.57102,0 -38.63086,-12.49611 -41.22461,-35.83985 h -18.62695 c 1.65057,31.36079 28.02007,51.875 59.38086,51.875 30.18182,0 57.49414,-21.93039 57.49414,-51.64062 0,-15.3267 -6.36684,-29.00302 -17.44922,-37.25586 -7.07387,-5.1875 -19.29439,-8.48687 -37.21484,-13.91016 -15.79829,-4.71591 -26.13513,-6.83913 -30.61524,-10.84765 -4.95171,-4.24432 -8.25195,-12.26031 -8.25195,-20.27735 0,-17.44887 17.64489,-30.41797 35.09375,-30.41797 17.68466,0 36.03711,12.26137 36.03711,31.125 h 18.15625 c 0,-28.29545 -25.19141,-47.160152 -53.72266,-47.160152 z M 749.67383,144.4082 c -33.40209,0 -59.66211,26.26001 -59.66211,59.66211 0,34.03231 26.68058,60.71289 60.71289,60.71289 26.04944,0 48.52626,-18.69701 55.87891,-40.54492 h -16.17579 c -6.51236,15.7557 -22.68674,26.25977 -40.12304,26.25977 -23.52852,0 -43.48564,-18.06765 -44.7461,-40.75586 h 103.98633 c 0,-40.75474 -25.83877,-65.33399 -59.87109,-65.33399 z m 130.08984,0 c -16.596,0.84031 -26.46834,6.51263 -32.56055,19.11719 v -16.38477 h -15.54687 v 114.91016 h 15.54687 v -67.01367 c 0,-21.42775 10.92272,-33.19221 32.56055,-35.29297 z m 64.77735,0 c -33.40209,0 -59.66211,26.26001 -59.66211,59.66211 0,34.03231 26.68057,60.71289 60.71289,60.71289 26.04942,0 48.52823,-18.69701 55.8809,-40.54492 h -16.17582 c -6.51235,15.7557 -22.6887,26.25977 -40.125,26.25977 -23.52851,0 -43.48565,-18.06765 -44.7461,-40.75586 h 103.98632 c 0,-40.75474 -25.83876,-65.33399 -59.87108,-65.33399 z m 134.50198,0 c -15.1255,0 -27.3092,5.88223 -36.9727,17.64649 v -14.91407 h -15.5449 v 114.91016 h 15.5449 v -63.23242 c 0,-28.15019 14.2845,-40.125 35.082,-40.125 21.2177,0 35.5039,11.76509 35.5039,43.06641 v 60.29101 h 15.545 v -60.29101 c 0,-40.33458 -20.3778,-57.35157 -49.1582,-57.35157 z m 125.2324,0 c -33.4021,0 -59.6621,26.26001 -59.6621,59.66211 0,34.03231 26.6807,60.71289 60.7129,60.71289 26.0494,0 48.5263,-18.69701 55.8789,-40.54492 h -16.1758 c -6.5123,15.7557 -22.6868,26.25977 -40.1231,26.25977 -23.5285,0 -43.4875,-18.06765 -44.748,-40.75586 h 103.9883 c 0,-40.75474 -25.8389,-65.33399 -59.8711,-65.33399 z m -454.81251,14.28516 c 22.26805,0 39.28521,14.07632 44.53711,36.97461 h -88.02148 c 4.20152,-22.05798 21.63647,-36.97461 43.48437,-36.97461 z m 194.86914,0 c 22.26806,0 39.28326,14.07632 44.53516,36.97461 H 900.8457 c 4.20152,-22.05798 21.63842,-36.97461 43.48633,-36.97461 z m 259.73247,0 c 22.2681,0 39.2851,14.07632 44.5371,36.97461 h -88.0215 c 4.2016,-22.05798 21.6365,-36.97461 43.4844,-36.97461 z"
         style="font-style:normal;font-variant:normal;font-weight:normal;font-stretch:normal;font-size:192px;font-family:'TeX Gyre Adventor';-inkscape-font-specification:'TeX Gyre Adventor';letter-spacing:-5.04px;fill:#222222;fill-opacity:1;stroke:none;stroke-width:1.2281;stroke-opacity:1" />
      <path
         style="font-style:normal;font-weight:normal;font-size:medium;line-height:1.25;font-family:sans-serif;letter-spacing:6.13px;word-spacing:0px;fill:#222222;fill-opacity:1;stroke:none;stroke-width:1.09931"
         d="m 1289.5742,102.19922 v 151.60156 h 73.4805 v -14.63476 h -58.2285 v -136.9668 z m 102.2754,0 V 253.80078 H 1407 V 102.19922 Z m 57.2383,0 v 151.60156 h 15.666 V 139.19727 l 99.9688,114.60351 h 3.4003 V 102.19922 h -14.9433 V 218.24609 L 1452.3848,102.19922 Z m 163.3906,0 v 91.51758 c 0,15.39037 0.9282,26.04041 2.7832,31.94922 2.9545,9.61898 8.7938,17.34935 17.5195,23.18945 8.7259,5.8401 19.2038,8.75976 31.4336,8.75976 11.268,0 20.8527,-3.09175 28.754,-9.27539 7.97,-6.18363 13.2602,-13.43254 15.871,-21.74609 2.6797,-8.38226 4.0196,-19.34167 4.0196,-32.87695 v -91.51758 h -15.1504 v 91.51758 c 0,11.95502 -0.5144,19.85748 -1.5449,23.70508 -1.4429,5.35914 -3.711,9.92814 -6.8028,13.70703 -3.0918,3.77888 -6.9396,6.73336 -11.5429,8.86328 -4.6034,2.12992 -9.4122,3.19336 -14.4278,3.19336 -5.7714,0 -11.5082,-1.33996 -17.2109,-4.01953 -5.7027,-2.74829 -9.9275,-6.11461 -12.6758,-10.09961 -2.7483,-4.05372 -4.502,-9.06937 -5.2578,-15.04688 -0.4122,-2.67957 -0.6172,-9.44702 -0.6172,-20.30273 v -91.51758 z m 129.5469,0 45.0371,73.48242 -48.334,78.11914 h 17.7266 l 39.5742,-63.58789 39.3691,63.58789 h 17.7266 l -48.1289,-78.11914 45.1406,-73.48242 h -17.5215 l -36.5859,59.15625 -36.2773,-59.15625 z"
         id="path5308" />
      <path
         transform="translate(-19.994495,1.0250359)"
         d="M 589.95898,282.96289 V 445.65234 H 1016.2637 V 282.96289 Z m 359.33204,38.97656 c 14.1781,0 24.68945,10.51248 24.68945,24.56836 0,7.57795 -2.44468,12.95568 -7.57813,17.11133 8.92243,5.3779 12.71094,11.73228 12.71094,21.87695 0,17.1115 -12.83381,29.94532 -29.94531,29.94532 -16.98928,0 -30.18945,-12.95522 -30.18945,-29.82227 0,-9.53355 3.54375,-16.74433 12.95507,-22 -5.62235,-5.98903 -7.45507,-10.26704 -7.45507,-16.86719 0,-13.81143 11.00108,-24.8125 24.8125,-24.8125 z m -315.84375,1.08008 h 18.20898 c 13.1766,0 18.68639,0.95846 23.95703,4.3125 6.34872,4.07277 10.0625,11.01984 10.0625,19.28516 0,8.26532 -2.75482,12.93698 -9.82226,16.65039 11.26,4.6717 15.09179,11.3806 15.09179,21.92187 0,16.17128 -11.13888,26.35352 -33.89843,26.35352 h -23.59961 z m 145.18359,0 h 15.93164 v 22.16016 h 9.58398 v 14.49609 h -9.58398 v 51.86719 h -15.93164 v -51.86719 h -7.78516 v -14.49609 h 7.78516 z m 170.78125,13.83203 c -5.3779,0 -9.41016,4.27804 -9.41016,9.90039 0,5.3779 4.15562,9.77735 9.28907,9.77735 5.01123,0 9.16601,-4.40026 9.16601,-9.90039 0,-5.50012 -4.0337,-9.77735 -9.04492,-9.77735 z m -299.55273,2.22071 v 18.08789 h 5.26953 c 9.94234,0 14.13476,-2.75675 14.13476,-9.10547 0,-6.10915 -4.19237,-8.98242 -12.69726,-8.98242 z m 82.62109,4.55078 c 19.76489,0 34.25781,15.09386 34.25781,35.69726 0,2.39575 -0.11851,3.83342 -0.59766,6.10938 h -51.38867 c 1.9166,8.02574 8.863,13.05664 18.32617,13.05664 6.5883,0 10.54247,-1.7964 14.61524,-6.58789 h 17.36914 c -4.43213,13.65574 -18.20883,21.20117 -31.625,21.20117 -20.24404,0 -35.93555,-15.09252 -35.93555,-34.49805 0,-19.52532 15.4532,-34.97851 34.97852,-34.97851 z m 108.64062,0 c 9.58298,0 16.17143,3.11485 21.68164,10.42187 v -8.86523 h 14.61329 v 66.36328 h -14.61329 v -8.625 c -6.34872,7.18723 -12.69761,10.18164 -22.04101,10.18164 -19.40553,0 -33.42188,-14.49358 -33.42188,-34.49805 0,-20.24404 14.13615,-34.97851 33.78125,-34.97851 z m -108.40234,14.61523 c -9.46319,0 -15.93173,4.67089 -18.44727,13.17578 h 36.7754 c -2.03639,-8.50489 -8.50558,-13.17578 -18.32813,-13.17578 z m 110.07813,0 c -11.37979,0 -19.4043,8.62415 -19.4043,20.72266 0,11.61936 8.02517,19.52539 19.64453,19.52539 12.09851,0 19.28516,-8.62411 19.28516,-19.64453 0,-12.09851 -8.14563,-20.60352 -19.52539,-20.60352 z m 106.49414,13.93555 c -7.8224,0 -14.05664,6.11202 -14.05664,14.05664 0,8.06685 6.11202,14.30078 14.05664,14.30078 7.70018,0 13.5664,-6.11284 13.5664,-14.17969 0,-7.8224 -6.11067,-14.17773 -13.5664,-14.17773 z m -299.43164,1.03711 v 22.64062 h 8.14453 c 11.49957,0 16.41211,-3.3551 16.41211,-11.02148 0,-7.90596 -5.3917,-11.61914 -16.77149,-11.61914 z"
         style="display:inline;opacity:1;fill:#222222;fill-opacity:1;fill-rule:nonzero;stroke:none;stroke-width:3.97471;stroke-linecap:butt;stroke-linejoin:miter;stroke-miterlimit:4;stroke-dasharray:none;stroke-opacity:1;paint-order:normal"
         id="path4512" />
      <g
         style="font-style:normal;font-variant:normal;font-weight:normal;font-stretch:normal;font-size:122.225px;line-height:1.25;font-family:'Apex Mk2';-inkscape-font-specification:'Apex Mk2';letter-spacing:0px;word-spacing:0px;fill:#222222;fill-opacity:1;stroke:none;stroke-width:3.05562"
         id="text34"
         aria-label="8" />
    </g>
    <circle
       r="64.545593"
       cy="68.204506"
       cx="75.177544"
       id="circle43"
       style="display:inline;opacity:1;fill:#ffffff;fill-opacity:1;fill-rule:nonzero;stroke:none;stroke-width:4.05271;stroke-linecap:square;stroke-linejoin:round;stroke-miterlimit:4;stroke-dasharray:none;stroke-opacity:1;paint-order:normal" />
    <path
       id="path49"
       d="m 44.877492,73.913328 c 2.497184,-3.036599 5.358816,-5.773213 8.503864,-8.132352 3.927423,-2.946008 8.290512,-5.298334 12.874527,-7.056292 2.185464,-0.83812 4.420357,-1.542053 6.608837,-2.372265 2.663197,-1.010298 5.252026,-2.20543 7.828018,-3.420991 7.277925,-3.434313 14.477729,-7.042362 21.486092,-10.997808 4.22203,-2.382869 8.38097,-4.896249 12.26819,-7.793335 3.52614,-2.627974 6.81314,-5.559912 10.22735,-8.33174 3.25735,-2.644481 6.63212,-5.144329 10.11103,-7.489713 v 0 l 0.046,-0.02226 c -8.62581,4.65692 -18.04965,7.831088 -27.73516,9.341843 -7.728262,1.205462 -15.582404,1.356691 -23.34832,2.289277 -4.408935,0.529456 -8.875232,1.340268 -12.786714,3.442491 -2.696615,1.449294 -5.048815,3.473018 -7.159052,5.690919 -2.985072,3.137371 -5.517985,6.67848 -7.831174,10.339478 -2.528659,4.002015 -4.806941,8.162206 -6.817101,12.44817 -0.171351,0.441186 -0.437422,0.845313 -0.774969,1.177079 -0.702814,0.690777 -1.721656,1.046359 -2.701664,0.942898 -0.448101,-0.08673 -0.915237,-0.07364 -1.357778,0.03805 -0.47594,0.120116 -0.915558,0.349962 -1.370267,0.534859 -0.03809,0.01549 -0.07687,0.03081 -0.117715,0.03552 -0.05597,0.0064 -0.112121,-0.0074 -0.166499,-0.02216 -0.647574,-0.17575 -1.246367,-0.493394 -1.83578,-0.81407 -1.124365,-0.611722 -2.238515,-1.244303 -3.310419,-1.94389 -0.873373,-0.570014 -1.717319,-1.183603 -2.569478,-1.784869 -0.715863,-0.505098 -1.43783,-1.00171 -2.171674,-1.480309 -1.477822,-0.963808 -3.008863,-1.856973 -4.636633,-2.537598 -1.890868,-0.790636 -3.892185,-1.286176 -5.903884,-1.678039 -2.28619,-0.445331 -4.595446,-0.760346 -6.90272,-1.078889 -2.016064,-0.278338 -4.031811,-0.559563 -6.051354,-0.811421 -0.7838181,-0.09775 -1.5681845,-0.191073 -2.3528865,-0.281454 -0.7154,-0.0824 -1.4310809,-0.162351 -2.1469811,-0.240284 -0.024518,-0.0027 -0.049036,-0.0053 -0.073555,-0.008 0.1134463,0.01893 0.2268544,0.03809 0.3402234,0.05748 3.2999317,0.564366 6.5669782,1.322805 9.7750752,2.279975 3.536465,1.055142 6.999467,2.351179 10.37922,3.833468 2.034438,0.892262 4.042077,1.853645 5.955358,2.98255 3.630638,2.142208 6.900493,4.880175 9.718075,8.015748 0.984781,1.095923 1.915356,2.240648 2.784793,3.430152 0.3288,0.449842 0.648865,0.906088 0.958658,1.369225 0.04441,0.0664 0.08861,0.132935 0.132604,0.199613 l 0.123863,-0.151105 z"
       style="display:inline;fill:#26c6da;fill-opacity:1;stroke:none;stroke-width:0.32;stroke-linecap:butt;stroke-linejoin:miter;stroke-miterlimit:4;stroke-dasharray:none;stroke-opacity:1" />
    <path
       d="m 38.377408,66.504619 -13.744381,4.267438 c -4.708666,1.461971 -5.317156,7.47768 0.489376,9.442317 9.983163,3.001373 -2.65e-4,-1.08e-4 35.613847,10.071222 23.934015,6.79569 43.28874,9.635872 10.163204,15.199594 -22.334915,3.75134 -33.640524,5.64816 -42.548825,7.14219 a 64.545593,64.545593 0 0 0 46.827117,20.12281 64.545593,64.545593 0 0 0 50.144224,-23.90552 C 129.17392,99.876878 127.71033,85.104395 78.650402,82.633867 59.952144,81.692276 38.513738,78.793511 44.952201,73.9946 l 0.05891,-0.23926 c -0.04409,0.05315 -0.08998,0.10479 -0.13384,0.158128 l -0.123507,0.150894 c -0.04399,-0.06668 -0.0884,-0.133072 -0.132811,-0.199469 C 44.311161,73.401756 43.991158,72.94531 43.662357,72.495468 42.792921,71.305962 41.862294,70.161107 40.877515,69.065185 40.08006,68.177732 39.245247,67.32388 38.377408,66.504619 Z"
       style="display:inline;fill:#1565c0;fill-opacity:1;stroke:none;stroke-width:0.264583px;stroke-linecap:butt;stroke-linejoin:miter;stroke-opacity:1"
       mask="none"
       clip-path="none"
       id="path45" />
  </g>
</svg>
