<?xml version="1.0" encoding="UTF-8" standalone="no"?>
<!-- Created with Inkscape (http://www.inkscape.org/) -->
<svg xmlns:dc="http://purl.org/dc/elements/1.1/" xmlns:cc="http://creativecommons.org/ns#" xmlns:rdf="http://www.w3.org/1999/02/22-rdf-syntax-ns#" xmlns:svg="http://www.w3.org/2000/svg" xmlns="http://www.w3.org/2000/svg" xmlns:sodipodi="http://sodipodi.sourceforge.net/DTD/sodipodi-0.dtd" xmlns:inkscape="http://www.inkscape.org/namespaces/inkscape" width="150.58789mm" height="150.58789mm" viewBox="0 0 150.58789 150.58789" version="1.1" id="svg2630" inkscape:version="0.92.1 r15371" sodipodi:docname="Serene-icon-no-shadow.svg">
  <defs id="defs2624">
    <clipPath clipPathUnits="userSpaceOnUse" id="clipPath4180">
      <circle style="opacity:1;fill:#ffffff;fill-opacity:1;stroke:none;stroke-width:1.29999995;stroke-linecap:butt;stroke-linejoin:bevel;stroke-miterlimit:4;stroke-dasharray:none;stroke-opacity:0.87234042" id="circle4182" cx="94.063423" cy="187.42929" r="65.293945"/>
    </clipPath>
    <clipPath id="clipPath2582" clipPathUnits="userSpaceOnUse">
      <circle style="opacity:1;fill:#ffffff;fill-opacity:1;stroke:none;stroke-width:1.29999995;stroke-linecap:butt;stroke-linejoin:bevel;stroke-miterlimit:4;stroke-dasharray:none;stroke-opacity:0.87234042" id="circle2580" cx="94.063423" cy="187.42929" r="65.293945"/>
    </clipPath>
    <clipPath clipPathUnits="userSpaceOnUse" id="clipPath4176">
      <circle style="opacity:1;fill:#ffffff;fill-opacity:1;stroke:none;stroke-width:1.29999995;stroke-linecap:butt;stroke-linejoin:bevel;stroke-miterlimit:4;stroke-dasharray:none;stroke-opacity:0.87234042" id="circle4178" cx="94.063423" cy="187.42929" r="65.293945"/>
    </clipPath>
  </defs>
  <sodipodi:namedview id="base" pagecolor="#ffffff" bordercolor="#666666" borderopacity="1.0" inkscape:pageopacity="0.0" inkscape:pageshadow="2" inkscape:zoom="0.70710678" inkscape:cx="197.76809" inkscape:cy="294.88429" inkscape:document-units="mm" inkscape:current-layer="layer1" showgrid="false" inkscape:showpageshadow="false" inkscape:pagecheckerboard="true" fit-margin-top="10" fit-margin-left="10" fit-margin-right="10" fit-margin-bottom="10" inkscape:window-width="1829" inkscape:window-height="1058" inkscape:window-x="83" inkscape:window-y="-8" inkscape:window-maximized="1" inkscape:object-paths="true" inkscape:snap-intersection-paths="true" inkscape:snap-smooth-nodes="true" inkscape:snap-midpoints="true" inkscape:object-nodes="true" showguides="true" showborder="true"/>
  <metadata id="metadata2627">
    <rdf:RDF>
      <cc:Work rdf:about="">
        <dc:format>image/svg+xml</dc:format>
        <dc:type rdf:resource="http://purl.org/dc/dcmitype/StillImage"/>
        <dc:title/>
      </cc:Work>
    </rdf:RDF>
  </metadata>
  <g inkscape:label="レイヤー 1" inkscape:groupmode="layer" id="layer1" transform="translate(3.2802582,-156.41211)">
    <circle style="display:inline;opacity:1;fill:#ffffff;fill-opacity:1;stroke:none;stroke-width:1.29999995;stroke-linecap:butt;stroke-linejoin:bevel;stroke-miterlimit:4;stroke-dasharray:none;stroke-opacity:0.87234042" id="circle4000" cx="72.013687" cy="231.70605" r="65.293945"/>
    <path style="opacity:1;fill:#1565c0;fill-opacity:1;stroke:none;stroke-width:4.91338587;stroke-linecap:butt;stroke-linejoin:bevel;stroke-miterlimit:4;stroke-dasharray:none;stroke-opacity:0.87234042" d="m 179.16406,272.46484 -14.25195,3.0293 -71.812501,22.29492 c -17.79654,5.52556 -20.094389,28.26404 1.851563,35.68946 37.731638,11.34376 -0.0011,-4.2e-4 134.603518,38.06445 90.45927,25.6845 163.61098,36.41903 38.41211,57.44726 -84.44619,14.18347 -127.20615,21.35756 -160.87305,27.00391 A 246.78027,246.78027 0 0 0 284.57617,531.35547 246.78027,246.78027 0 0 0 472.30273,444.6543 C 488.38459,411.16033 488.21995,352.2392 297.26172,342.62305 226.59114,339.06428 145.56409,328.10832 169.89844,309.9707 Z" transform="matrix(0.26458333,0,0,0.26458333,-3.2802582,156.41211)" id="circle4016" inkscape:connector-curvature="0"/>
    <path sodipodi:nodetypes="ccscssscsc" inkscape:connector-curvature="0" id="path3850" d="m 0,216.06098 c 26.27686,5.58048 31.18153,10.94976 41.672104,22.36431 16.105701,-16.42239 24.939995,-16.40509 39.570525,-22.64489 12.046749,-5.13784 28.038811,-15.55547 54.263031,-32.19266 -29.71903,10.69799 -41.059542,10.18356 -53.71905,10.70223 -7.554445,0.30951 -12.962374,1.81357 -18.937896,6.97752 -4.974201,4.29864 -12.662887,16.11013 -15.892479,23.12517 -2.83537,6.15875 -4.014888,2.70927 -7.351704,4.6543 C 35.364887,227.52359 27.27894,220.43871 21.78348,219.29438 9.69035,216.77621 13.10767,217.60692 0,216.06098 Z" style="display:inline;fill:#26c6da;fill-opacity:1;stroke:none;stroke-width:0.26458332px;stroke-linecap:butt;stroke-linejoin:miter;stroke-opacity:1"/>
  </g>
</svg>