<?xml version="1.0" encoding="UTF-8" standalone="no"?>
<svg
   xmlns:dc="http://purl.org/dc/elements/1.1/"
   xmlns:cc="http://creativecommons.org/ns#"
   xmlns:rdf="http://www.w3.org/1999/02/22-rdf-syntax-ns#"
   xmlns:svg="http://www.w3.org/2000/svg"
   xmlns="http://www.w3.org/2000/svg"
   xmlns:sodipodi="http://sodipodi.sourceforge.net/DTD/sodipodi-0.dtd"
   xmlns:inkscape="http://www.inkscape.org/namespaces/inkscape"
   width="324pt"
   height="204pt"
   viewBox="0 0 114.3 71.966669"
   version="1.1"
   id="svg8"
   inkscape:version="1.0.2 (e86c870879, 2021-01-15)"
   sodipodi:docname="描画asas-1.svg">
  <defs
     id="defs2">
    <filter
       style="color-interpolation-filters:sRGB;"
       inkscape:label="Drop Shadow"
       id="filter1552">
      <feFlood
         flood-opacity="0.498039"
         flood-color="rgb(0,0,0)"
         result="flood"
         id="feFlood1542" />
      <feComposite
         in="flood"
         in2="SourceGraphic"
         operator="in"
         result="composite1"
         id="feComposite1544" />
      <feGaussianBlur
         in="composite1"
         stdDeviation="5"
         result="blur"
         id="feGaussianBlur1546" />
      <feOffset
         dx="0"
         dy="0"
         result="offset"
         id="feOffset1548" />
      <feComposite
         in="SourceGraphic"
         in2="offset"
         operator="over"
         result="composite2"
         id="feComposite1550" />
    </filter>
  </defs>
  <sodipodi:namedview
     id="base"
     pagecolor="#ffffff"
     bordercolor="#666666"
     borderopacity="1.0"
     inkscape:pageopacity="0.0"
     inkscape:pageshadow="2"
     inkscape:zoom="1.979899"
     inkscape:cx="175.21253"
     inkscape:cy="100.79327"
     inkscape:document-units="mm"
     inkscape:current-layer="layer1"
     inkscape:document-rotation="0"
     showgrid="false"
     units="pt"
     showguides="true"
     inkscape:guide-bbox="true"
     inkscape:window-width="1920"
     inkscape:window-height="1016"
     inkscape:window-x="0"
     inkscape:window-y="36"
     inkscape:window-maximized="1" />
  <metadata
     id="metadata5">
    <rdf:RDF>
      <cc:Work
         rdf:about="">
        <dc:format>image/svg+xml</dc:format>
        <dc:type
           rdf:resource="http://purl.org/dc/dcmitype/StillImage" />
        <dc:title></dc:title>
      </cc:Work>
    </rdf:RDF>
  </metadata>
  <g
     inkscape:label="レイヤー 1"
     inkscape:groupmode="layer"
     id="layer1">
    <rect
       style="fill:#ffffff;fill-rule:evenodd;stroke:none;stroke-width:0.149387;stroke-linecap:round;stroke-linejoin:bevel;stroke-miterlimit:4;stroke-dasharray:0.149387, 0.149387;stroke-dashoffset:0;paint-order:stroke fill markers;filter:url(#filter1552)"
       id="rect1402"
       width="88.194443"
       height="52.916668"
       x="12.347222"
       y="8.8194447"
       transform="matrix(1.2101112,0,0,1.2487673,-11.382059,-7.7002931)" />
    <path
       style="fill:#ff5555;fill-rule:evenodd;stroke:none;stroke-width:0.2;stroke-linecap:round;stroke-linejoin:bevel;stroke-miterlimit:4;stroke-dasharray:0.2, 0.20000000000000001;stroke-dashoffset:0;paint-order:stroke fill markers"
       id="path1745"
       d="M 3.1453013,0.50549862 C 1.5670156,1.1510721 0.27374508,2.2974683 -1.0897608,3.2843665 -1.749414,3.7618201 -2.4216301,4.221689 -3.0847162,4.6943634 c -0.1463236,0.1124759 -1.0978634,0.654975 -1.0174401,1.1181744 0.107142,0.6170866 1.3300879,0.5998128 1.565965,0.6066856 0.7750849,0.022585 3.8023764,-0.1780471 4.489383,-0.2193203 1.0871428,-0.066044 2.9915845,-0.1881605 4.1252309,-0.2343727 0.8734684,-0.035606 1.465427,-0.095492 2.2846927,0.052387 0.1310814,0.023659 0.4278579,0.00441 0.3785002,0.1281295 C 8.6868801,6.2832421 8.4469228,6.1668003 8.2995766,6.1771786 8.4498216,5.9643941 8.9992297,5.6155761 8.7503118,5.5388245 8.2136077,5.3733369 7.6427983,5.7276507 7.0862456,5.8030596 5.8966195,5.9642454 4.8286942,6.0647029 3.6344952,6.1259531 2.3431482,6.1921858 2.7243513,6.3183965 2.1613052,6.0936864 1.9609863,6.458445 1.2535271,6.9068267 1.5603486,7.1879618 c 0.4342676,0.3979116 1.177846,-0.032518 1.7668111,-0.026024 1.232675,0.013592 3.0583788,0.1009941 4.2890397,0.2054987 0.6201521,0.052662 1.2408371,0.1088239 1.8561585,0.2023202 0.4974002,0.075578 0.9855501,0.2028965 1.4783261,0.3043447 0.300659,0.1622414 0.657256,0.2483339 0.901977,0.4867246 0.155042,0.1510318 0.23312,0.3934227 0.223514,0.6096552 -0.0374,0.84186 -1.467226,1.5886328 -2.054888,1.9412398 -0.167273,0.100367 0.326096,-0.214189 0.489144,-0.321284 -0.330967,0.166185 -1.2163658,0.600647 -1.5788458,0.816178 -0.1179912,0.07016 -1.9525937,0.761895 -2.2231733,1.576944 -0.071243,0.214601 -0.0019,0.423815 0.039078,0.631361 0.023098,0.102629 0.087352,0.204253 0.069293,0.307887 -0.1242304,0.712925 -1.4757056,1.658376 -1.9495071,2.000161 -0.7711483,0.556281 -1.7002961,1.114764 -2.5075962,1.6165 -0.4811586,0.292781 -1.51237027,0.917515 -2.02435227,1.238567 -0.23466548,0.147153 -0.47504761,0.286264 -0.69938899,0.448723 -0.15839474,0.114703 -0.32542149,0.227114 -0.44624016,0.380895 -0.0724316,0.09219 -0.20201338,0.254783 -0.11433971,0.332624 0.27410111,0.243359 0.66746141,0.303174 1.00119212,0.454761 0.77268417,0.150176 1.54544561,0.299954 2.31805251,0.450527 1.1633021,0.226715 2.3302109,0.435741 3.4896738,0.681336 2.5726911,0.544942 5.8896571,1.337318 8.4327531,1.987401 1.246558,0.318653 2.495778,0.629797 3.729234,0.995903 0.925246,0.274626 1.829061,0.616879 2.74359,0.925318 0.275754,0.274667 0.702092,0.455469 0.82726,0.823999 0.06568,0.193389 -0.181466,0.474437 -0.385697,0.476086 -0.284454,0.0024 -0.429852,-0.457124 -0.714136,-0.467204 -1.198099,-0.04248 -2.386367,0.237918 -3.582748,0.314841 -2.527943,0.162538 -5.061772,0.194389 -7.5932148,0.251081 -0.772025,0.01093 -4.1631851,0.04799 -5.2165342,0.09721 -1.0275683,0.04801 -2.1248607,0.0943 -2.7001879,1.295565 -0.1376713,0.287451 0.5638604,0.300677 0.861238,0.415348 0.3775533,0.145589 0.7721902,0.242265 1.1582855,0.363397 0.5025967,0.157369 1.800588,0.551154 2.3133775,0.758851 0.267199,0.108226 0.5425127,0.212434 0.7764753,0.380865 0.1078045,0.07761 0.290966,0.22401 0.2169208,0.334294 -0.1236115,0.184107 -0.3934508,0.282223 -0.6137349,0.256725 -0.1241769,-0.01437 0.148192,-0.201359 0.2222878,-0.302041 -1.5703063,0.645496 -3.1716128,1.250609 -4.6543224,2.088084 -1.23590376,0.698069 -2.51025358,1.309272 -3.5119558,2.323687 -0.2042659,0.206857 -0.3619824,0.455002 -0.5429736,0.682504 -0.255739,0.527494 -0.4444533,0.905758 -0.1589212,1.461219 0.072723,0.255072 0.3416046,0.371234 0.4605123,0.590794 0.030324,0.05599 0.012214,0.126769 0.01832,0.190153 -0.1432048,0.0691 -0.2864096,0.138205 -0.4296144,0.207306 0.086733,-0.105762 0.3914099,-0.355917 0.2601979,-0.317291 -0.6371651,0.187571 -1.2269687,0.509519 -1.833413,0.780421 -1.6134429,0.720733 -2.8364341,1.314611 -4.4028095,2.130499 -0.6399958,0.333359 -1.2699425,0.685665 -1.9049144,1.028496 -1.241544,0.736656 -2.930805,1.633051 -4.15202,2.600277 -0.273776,0.216834 -0.542202,0.446024 -0.768982,0.711621 -0.149804,0.175445 -0.622003,0.866952 -0.404988,1.203328 0.175528,0.272068 0.514839,0.392768 0.772258,0.58915 1.086335,0.528473 2.233609,0.914302 3.376969,1.296964 0.308753,0.103333 0.615086,0.215307 0.929034,0.301577 0.260277,0.07152 0.527647,0.114133 0.7914712,0.171201 0,0 1.5129333,-1.055978 1.5129333,-1.055978 v 0 c -0.2692379,-0.04522 -0.541972,-0.07309 -0.8077139,-0.135663 -0.3226136,-0.07596 -0.6377811,-0.180901 -0.9542976,-0.27922 -1.126455,-0.349919 -2.252827,-0.72458 -3.298633,-1.278361 -0.207387,-0.154672 -0.48414,-0.245194 -0.622159,-0.464015 -0.08393,-0.133067 -0.02143,-0.323062 0.0325,-0.470853 0.325275,-0.891333 1.489784,-1.523214 2.180017,-2.034384 0.06706,-0.04966 0.124295,-0.111381 0.186442,-0.167073 0.646545,-0.354129 1.287201,-0.719225 1.9396331,-1.062387 1.5534404,-0.817065 2.7139741,-1.382559 4.3203124,-2.079686 2.2773523,-0.988338 1.9878928,-0.646464 4.615273,-2.17505 0.16650834,-0.09687 0.25834239,-0.285824 0.38751358,-0.428738 -0.0282912,-0.08861 -0.0365916,-0.186336 -0.0848736,-0.265846 -0.43715114,-0.719897 -0.0139099,0.263893 -0.43183873,-0.520263 -0.23440565,-0.439814 -0.0451546,-0.842068 0.16363373,-1.251016 0.73302606,-0.910749 0.30189207,-0.455986 1.32980121,-1.328841 0.0671264,-0.07445 -0.37100475,0.149328 -0.28340261,0.1006 C 1.8667966,32.755426 3.425314,32.092748 5.0089336,31.503121 5.9640818,31.018921 6.9529675,30.596193 7.8743787,30.050519 8.0927949,29.92117 8.3464811,29.745404 8.3970192,29.49664 8.4298119,29.335226 8.2002147,29.221966 8.0603922,29.134905 7.8028534,28.974546 7.5111285,28.875566 7.2273317,28.768325 6.9892644,28.678364 5.1134847,28.076331 4.9108716,28.010928 4.547781,27.881333 4.1830224,27.756315 3.8215997,27.622136 3.0299638,27.328237 2.454714,26.854191 1.6358368,28.093955 c -0.2292567,0.347091 0.8121041,-0.189294 1.2255186,-0.235326 1.4717712,-0.16388 4.0869832,-0.218705 5.4411641,-0.265414 0.3145859,-0.0094 7.3756525,-0.219964 7.5696885,-0.227198 1.131614,-0.04217 2.283083,0.06691 3.393701,-0.15413 1.271107,-0.252979 2.517799,-0.68103 3.680413,-1.253778 0.196876,-0.09699 0.291025,-0.461912 0.160699,-0.638496 C 22.84373,24.96287 22.347697,24.861596 21.968035,24.632588 21.001816,24.356912 20.040828,24.062193 19.069376,23.805562 17.80556,23.471697 16.531638,23.177327 15.263228,22.861364 3.9300046,20.038236 17.981684,23.536561 6.9720943,20.77209 5.875099,20.496638 4.7735196,20.239428 3.678315,19.956941 2.9789821,19.776561 2.2853639,19.574711 1.5888884,19.383596 1.3395908,19.296587 1.0515532,19.281898 0.8409956,19.12257 0.77491539,19.072568 0.89060381,18.9587 0.94637711,18.897412 1.0659878,18.765975 1.2120828,18.660386 1.3562099,18.556416 2.1871855,17.956969 3.1085649,17.487642 3.9592506,16.91904 4.775229,16.40643 5.6916624,15.850204 6.4694093,15.281429 7.1110289,14.812206 7.8870801,14.237735 8.3447966,13.55164 c 0.1068721,-0.160196 0.1569273,-0.356858 0.1845961,-0.547433 0.014764,-0.101685 -0.040837,-0.201403 -0.061256,-0.302105 -0.023289,-0.178958 -0.070364,-0.322121 0.013245,-0.496306 0.045607,-0.09501 0.2868329,-0.290475 0.1878317,-0.254334 -0.415866,0.151814 -0.7758028,0.42812 -1.1769418,0.615415 -0.558368,0.260707 2.457904,-1.323343 1.635116,-0.8626 C 9.9746619,11.226242 10.831622,10.764982 11.66921,10.270172 12.350661,9.8675996 13.788181,9.0431391 13.702185,8.0544354 13.680106,7.8005876 13.546649,7.5398722 13.352744,7.3745631 13.070662,7.1340807 12.682475,7.0577849 12.347341,6.8993956 11.833084,6.8070282 11.322529,6.6909174 10.804568,6.6222932 9.7343684,6.4805035 7.8184665,6.3685856 6.7744339,6.3039775 6.0762848,6.260774 5.3781261,6.2172249 4.6795356,6.1818715 4.1310594,6.1541146 3.5653368,5.9782299 3.0333735,6.1146536 2.1612131,6.3383223 1.3946301,6.8611694 0.57525843,7.2344274 1.4784611,7.1237524 0.40329238,7.2469903 2.2820498,7.1239974 3.4458603,7.0478083 4.5801454,6.9413249 5.7397618,6.8106641 6.2732192,6.7505561 6.8246566,6.7689401 7.3379091,6.6115813 8.2875418,6.3204317 9.1745352,5.8545565 10.092848,5.4760441 10.169711,5.3377647 10.389573,5.2049259 10.323438,5.0612063 10.256012,4.9146798 10.012363,4.9690771 9.8519233,4.9524835 9.5405735,4.9202821 9.2265766,4.9093559 8.9136243,4.915396 8.4051814,4.9252094 7.89786,4.9675457 7.3903585,4.9999931 5.9926222,5.0893577 4.5970319,5.2107808 3.1982634,5.2849684 1.7763076,5.3534338 0.35366706,5.4626197 -1.0715034,5.3876582 -1.4065938,5.3700343 -1.7443104,5.3316576 -2.0674663,5.2412886 -2.1868492,5.2079038 -2.3497362,5.1469609 -2.3697174,5.0246189 -2.4318434,4.6442301 -1.4745489,4.0743105 -1.4324562,4.0416067 -0.4340834,3.3250589 0.57174259,2.6200067 1.5636931,1.8945236 1.8130301,1.712166 2.616665,1.3886501 2.3107048,1.346087 1.9344693,1.2937477 1.6301131,1.6837176 1.2919369,1.8567188 c -0.09379,0.04798 0.1903458,-0.090348 0.2855187,-0.1355226 0,0 1.5678457,-1.21569758 1.5678457,-1.21569758 z" />
    <path
       style="fill:#ff5555;fill-rule:evenodd;stroke:none;stroke-width:0.2;stroke-linecap:round;stroke-linejoin:bevel;stroke-miterlimit:4;stroke-dasharray:0.2, 0.2;stroke-dashoffset:0;paint-order:stroke fill markers"
       id="path1747"
       d="m 15.556502,51.42726 c -0.179204,-0.0029 -0.358779,-0.02045 -0.537614,-0.0086 -1.343261,0.08911 -2.035123,0.227735 -3.447414,0.533578 -2.3512995,0.509193 -4.6366513,1.210151 -6.9283927,1.933331 -0.5420725,0.192442 -1.0936417,0.359979 -1.6262175,0.577326 -0.8154046,0.332769 -2.36582694,1.341959 -2.77549809,1.757617 -0.1084246,0.110008 0.0879938,0.307263 0.19140094,0.422 0.18939891,0.210153 1.03215485,0.680492 1.22987815,0.797438 0.2924954,0.197715 1.1441441,0.692414 1.2474885,1.095166 0.2199378,0.857139 -0.6180513,2.181021 -0.9787538,2.718779 -1.24792454,1.860484 -1.72286015,2.063199 -3.4511789,3.573412 -2.6086634,1.807244 -1.7722207,1.276736 -4.3500625,2.880873 -0.5724816,0.356243 -1.1628625,0.684244 -1.7241652,1.057855 -0.3974727,0.264562 -1.0112166,0.397774 -1.1493875,0.854815 -0.1223521,0.404715 0.192733,0.911183 0.54465,1.14553 0.994033,0.66195 2.1956818,0.940263 3.2935227,1.410393 8.7406651,3.180503 17.5803999,6.103125 26.1497409,9.735539 1.041383,0.441426 2.068408,0.915988 3.102612,1.373982 1.147417,0.570881 2.295552,1.033129 3.299939,1.834898 0.181206,0.144651 0.340498,0.323819 0.457349,0.524082 0.05131,0.08794 0.06708,0.211169 0.02601,0.304339 -0.03181,0.07219 -0.274796,0.154567 -0.209042,0.110974 0.472178,-0.313036 0.952751,-0.613227 1.429126,-0.919839 -0.125193,-0.07244 0.287642,-0.198372 0.241183,-0.121301 -0.146828,0.243567 -0.865915,0.605909 -0.582078,0.623816 0.758526,0.04785 1.478172,-0.35469 2.219899,-0.520496 8.77705,-1.962023 -2.661435,0.680913 8.494861,-1.923982 5.313979,-1.251638 10.607352,-2.596824 15.838736,-4.161242 2.53955,-0.759439 4.806386,-1.476047 7.260137,-2.437416 0.865849,-0.339232 1.709196,-0.733319 2.563792,-1.099978 2.572853,-1.441392 2.783483,-1.486713 5.576877,-3.47962 0.675526,-0.481944 1.296656,-1.035908 1.945737,-1.552919 0.645825,-0.514419 1.282412,-1.040728 1.938976,-1.541365 1.720902,-1.312209 2.199089,-1.589005 4.016708,-2.801808 0.667274,-0.412956 1.328176,-0.836395 2.001824,-1.238869 0.143209,-0.08556 0.297392,-0.151278 0.447339,-0.22439 1.056891,-0.515324 1.881637,-0.957297 2.996121,-1.314543 1.726866,-0.553543 2.40485,-0.599525 4.260154,-0.923869 2.836635,-0.34771 5.549601,-0.350782 8.351035,0.278246 0.793631,0.1782 1.584669,0.392311 2.337599,0.70004 1.551137,0.63396 2.003147,1.129464 3.243967,2.124893 0.29582,0.36659 0.80205,0.636516 0.88747,1.099769 0.0824,0.44659 -0.13195,0.960107 -0.44737,1.286807 -1.3734,1.422519 -2.7515,1.501732 -4.55004,1.960168 -5.507818,1.403911 -2.836283,0.810622 -8.192743,1.835343 -0.610264,0.06687 -4.297289,0.572093 -5.270302,0.365236 -0.198165,-0.04213 -0.394475,-0.387554 -0.267756,-0.545624 0.801513,-0.999807 2.788619,-1.010322 3.754441,-1.178213 1.787265,-0.310687 3.571724,-0.637307 5.357587,-0.955961 4.974373,-0.502989 5.934221,-0.711943 10.821003,-0.787127 1.44129,-0.02217 2.88654,-0.03939 4.3238,0.07057 1.04007,0.07958 2.09503,0.182351 3.08968,0.496618 0.51862,0.163859 1.28816,0.368268 1.35571,0.907941 0.0641,0.512525 -0.73749,0.723395 -1.10623,1.085091 -0.67012,0.190883 -1.34166,0.376872 -2.01036,0.572648 -1.45183,0.425043 -2.8906,0.895832 -4.35117,1.289778 -1.42668,0.384807 -2.86714,0.717476 -4.30788,1.045752 -1.880285,0.428429 -4.866391,1.035121 -6.845953,1.359919 -0.747302,0.122616 -1.500463,0.206409 -2.250694,0.309615 -0.322643,-0.02241 -0.725318,0.146664 -0.967936,-0.0672 -0.162237,-0.143015 0.377545,-0.24433 0.592982,-0.263324 0.100737,-0.0089 0.137591,0.211926 0.236357,0.190201 1.10979,-0.244102 2.171367,-0.673354 3.270528,-0.961554 2.728061,-0.715304 4.797836,-1.09836 7.549006,-1.658781 0.48972,-0.09214 4.9957,-0.932974 5.76373,-1.101146 0.91286,-0.199885 2.33032,-0.524423 3.21729,-0.987107 2.26138,-1.179656 1.83968,-0.813046 2.84428,-1.955904 0.0785,-0.165417 0.17336,-0.323995 0.23537,-0.496257 0.10478,-0.291069 0.0961,-0.619083 0.23048,-0.902444 0.11107,-0.23419 0.25481,-0.452564 0.40527,-0.66362 0.67463,-0.946327 0.89215,-1.074878 1.78596,-1.961086 2.35237,-2.143141 4.74328,-4.243036 7.05346,-6.432307 0.49397,-0.468116 0.99346,-0.930963 1.47014,-1.416677 0.41269,-0.420513 0.79785,-0.867185 1.19678,-1.300779 0.87301,-1.007221 1.60032,-2.133909 1.9371,-3.437532 0.15587,-0.603372 0.27409,-1.279512 -0.13263,-1.841305 -0.21387,-0.295407 -0.57289,-0.451458 -0.85933,-0.677187 -0.55305,-0.05116 -1.10408,-0.172929 -1.65915,-0.153477 -1.42137,0.04981 -3.00193,0.485298 -4.33898,0.901737 -1.91133,0.595307 -3.74198,1.387869 -5.56109,2.213999 -1.68105,0.871762 -1.7463,0.871116 -3.75444,2.163812 -0.62214,0.400492 -1.27809,0.980213 -1.75959,1.550414 -0.0979,0.115945 -0.18193,0.242937 -0.2729,0.364405 -0.51229,1.048589 -1.37943,1.859365 -2.18353,2.684597 0.6998,-0.235196 -1.20905,0.878153 -0.86783,0.72035 0.60584,-0.280178 1.21148,-0.567087 1.78155,-0.914289 0.17886,-0.108932 0.29528,-0.297093 0.44606,-0.442426 0.3695,-0.356147 0.73622,-0.715372 1.1147,-1.061955 0.49384,-0.452213 1.00123,-0.889387 1.50184,-1.33408 2.0405,-1.76059 1.03257,-0.896506 2.99441,-2.568321 0.39184,-0.333914 0.8109,-0.638302 1.1755,-1.001765 0.21884,-0.218152 0.69346,-0.452768 0.5659,-0.734206 -0.15711,-0.346659 -0.69417,-0.36541 -1.07415,-0.387191 -1.04653,-0.05999 -2.09424,0.09704 -3.14136,0.145553 -4.06672,0.216051 -8.12911,0.545176 -12.20044,0.672732 -1.317928,0.04129 -3.644388,0.31065 -4.999777,-0.461597 -0.354123,-0.201766 -0.481237,-0.657927 -0.721854,-0.986888 0.219077,-0.504013 0.35248,-1.054706 0.65723,-1.512036 0.926399,-1.390218 2.499405,-2.737249 3.748437,-3.777927 1.835154,-1.529027 3.806764,-2.888686 5.753134,-4.269338 0.17922,-0.182319 1.55659,-0.949536 1.3731,-1.515229 -0.0994,-0.306382 -0.23843,-0.153249 -0.39223,-0.377833 -0.0401,-0.05858 -0.0314,-0.138493 -0.0471,-0.207743 0.31282,-0.443333 0.49894,-0.733536 0.89752,-1.149519 0.58498,-0.610537 1.34294,-1.232114 2.00234,-1.744377 0.86341,-0.670753 1.88461,-1.389192 2.77312,-2.025639 0.32171,-0.234966 1.92287,-1.388512 2.28869,-1.711703 0.2589,-0.228735 0.67021,-0.407607 0.71514,-0.750142 0.13163,-1.003501 -1.64217,-2.48004 -2.02177,-2.827787 -0.73088,-0.669544 -1.5213,-1.271042 -2.28195,-1.906564 -2.34061,-1.91946 -4.80945,-3.717255 -6.93446,-5.886599 -0.94542,-0.965142 -2.15668,-2.138854 -2.23529,-3.638153 -0.0358,-0.682469 0.31474,-1.330083 0.4721,-1.995125 0.40604,-0.671365 0.73895,-1.392802 1.21811,-2.014096 0.5295,-0.686577 1.16075,-1.290815 1.79041,-1.886876 1.1061,-1.047075 2.44976,-2.0445233 3.68304,-2.9426815 1.79287,-1.3056973 1.16858,-0.4482304 1.95341,-2.0674354 -0.11853,-0.3464626 -0.15283,-0.734469 -0.35558,-1.0393873 -0.53559,-0.8054686 -1.44293,-1.233606 -2.1163,-1.8842297 -0.26306,-0.2541767 -0.65639,-0.4907097 -0.68773,-0.8551632 -0.10197,-1.1858074 0.7399,-0.6631415 1.08201,-0.5304636 1.10302,-0.1779405 2.19983,-0.3999266 3.30906,-0.5338211 1.16377,-0.1404781 2.33487,-0.2151997 3.50478,-0.2886752 3.25548,-0.2044582 6.51959,-0.2104239 9.77869,-0.1225004 0.0991,0.00808 3.38945,0.4616194 2.04581,-1.10156924 -0.56604,-0.65853022 -1.72517,-0.20448463 -2.58247,-0.34268338 -2.70536,-0.43610956 -5.25357,-0.95723391 -7.92585,-1.57624298 -1.24575,-0.2885663 -2.48201,-0.6166855 -3.72301,-0.9250282 -2.14845,-0.613611 -3.48921,-0.9276368 -5.50861,-1.7375615 -1.24019,-0.4974077 -2.05051,-0.8771795 -3.03575,-1.7433317 -0.62903,-0.5529971 -0.95265,-1.0877825 -1.41885,-1.7528913 -0.18504,-0.1877388 -0.29186,-0.5496274 -0.5551,-0.5632164 -0.53582,-0.027659 -1.06276,0.2175976 -1.54398,0.454859 -1.338988,0.6601836 -2.614462,1.4440945 -3.88788,2.2232932 -2.266934,1.3871281 -4.520123,2.7985654 -6.730545,4.2740824 C 87.643428,0.78908744 75.400504,9.4288833 73.095401,11.050393 64.852448,16.781633 56.584716,22.479395 48.201639,28.00458 c -2.446589,1.612516 -6.883439,4.546949 -9.671243,6.068073 -0.541462,0.295442 -1.137864,0.476573 -1.706798,0.714862 -0.5559,-0.04048 -1.185349,0.157864 -1.667695,-0.121425 -1.095978,-0.634593 -1.544156,-3.005243 -1.708195,-3.909637 -0.175151,-0.965658 -0.252031,-1.947653 -0.322276,-2.926548 -0.122827,-1.711715 -0.104743,-4.010423 -0.111823,-5.737316 0.0024,-0.412266 0.266464,-3.383866 -0.499864,-3.952842 -1.255191,-0.931941 -4.717124,0.566322 -5.35645,0.788935 -1.933103,0.673104 -5.382169,2.143689 -7.301603,2.944391 -0.253163,0.104788 -4.310973,1.929862 -5.119184,1.811095 -0.495714,-0.07284 -0.866577,-0.603466 -1.060095,-1.065624 -0.295988,-0.706875 -0.374871,-1.508533 -0.338298,-2.274003 0.140288,-2.93622 1.141241,-4.640691 2.246101,-7.389818 2.080197,-4.304097 4.617756,-8.3596432 7.243517,-12.34564215 0.665448,-1.01017416 1.374421,-1.99145475 2.03069,-3.00761645 0.428936,-0.6641618 0.991853,-1.2759268 1.223884,-2.0317435 0.100712,-0.3280572 -0.198395,-0.6570361 -0.297593,-0.9855541 -0.70136,0.03937 -1.414815,-0.01742 -2.10408,0.1181118 -1.85745,0.3652375 -7.412926,2.2218782 -8.745064,2.6483241 C 10.110475,-1.1047707 5.2837717,0.4296184 0.43964923,1.9135704 -0.48040422,0.76050007 -3.1475883,3.7771826 -4.4553941,2.7613633 -4.7602936,2.5245368 -4.0466261,2.0814822 -3.7334978,1.8556476 -3.041719,1.3567223 -2.2802629,0.94667913 -1.490987,0.62337124 5.9930553,-2.4422867 6.3218504,-2.1084689 14.887683,-4.0732776 c 8.967338,-1.4717786 9.577224,-1.6981299 18.289199,-2.6650679 2.362575,-0.2622212 4.729339,-0.4925105 7.10008,-0.6660378 1.74507,-0.127731 3.495704,-0.3123245 5.243843,-0.2374799 3.196093,0.1368372 2.852412,-0.00156 2.09523,1.6012594 -2.283552,0.6426533 -5.864905,1.6643323 -7.674144,2.0388238 -2.394585,0.4956508 -4.81689,0.8522779 -7.238386,1.1929552 -5.694357,0.8011321 -11.431487,1.2343265 -17.164248,1.6378904 -0.975685,0.30113808 -2.657731,0.64684449 1.464352,1.87659653 2.356358,0.70297867 4.865415,0.71705997 7.297372,1.08063897 3.525997,0.5271388 7.060541,1.0009761 10.576476,1.5915126 5.391486,0.9055539 18.440608,3.4261448 23.894232,4.4669966 7.71698,1.5174968 10.782432,2.0417377 18.089385,3.7425837 0.189325,0.04407 7.603582,1.60775 8.812376,2.696954 0.272492,0.245534 -0.363675,0.750341 -0.721537,0.8308 -0.726964,0.163447 -1.48604,-0.111603 -2.229059,-0.167405 -4.89608,0.471445 -5.210011,0.575371 -10.113857,0.754783 -1.416555,0.05183 -2.834801,0.108548 -4.251875,0.07361 -0.750816,-0.01851 -1.516991,-0.03393 -2.240986,-0.23368 -0.130625,-0.03604 -0.197599,-0.401749 -0.06209,-0.401749 0.443521,2e-6 0.845643,0.267835 1.268466,0.401753 5.130352,-0.71256 4.850011,-0.758516 10.205336,-1.135756 3.228372,-0.227413 5.818743,-0.33485 9.012457,-0.304546 1.015926,0.0096 2.030669,0.07196 3.046002,0.107946 0,0 1.127554,-0.816298 1.127554,-0.816298 v 0 c -1.068573,6.35e-4 -2.137344,-0.01868 -3.205718,0.0019 -3.323715,0.06406 -5.843387,0.216582 -9.209966,0.441849 -5.191884,0.347404 -4.893596,0.351552 -9.803934,0.818124 -1.363298,0.48706 -2.790751,0.8224 -4.089892,1.46118 -0.169143,0.08317 0.278318,0.299545 0.46559,0.320866 0.844841,0.09618 1.700654,0.03897 2.550792,0.02255 4.761566,-0.09199 9.517213,-0.421737 14.26773,-0.734665 1.641179,-0.452132 3.359745,-0.683746 4.923531,-1.356395 0.259699,-0.111707 0.412628,-0.697077 0.164229,-0.832062 -1.275321,-0.69304 -9.578541,-2.16768 -9.597069,-2.171237 C 56.102067,7.3189043 83.369723,12.652479 58.804561,7.8218524 33.048725,2.9061822 61.288106,8.2657695 34.910281,3.3547976 31.538513,2.7270485 28.162657,2.1191059 24.801601,1.436323 22.560781,0.98111068 20.378452,0.20166712 18.106741,-0.05876436 16.593718,-0.23221903 15.05604,0.31457585 13.542514,0.14556835 c -0.394559,-0.0440583 0.68628,-0.39936405 1.02942,-0.59904608 1.411973,-0.17627428 2.821678,-0.37178488 4.235921,-0.52882281 7.015776,-0.77903406 6.09182,-0.51547766 13.422001,-1.47116066 2.932475,-0.3823257 9.316876,-1.191693 12.406918,-2.2269467 1.600899,-0.5363478 3.062814,-1.4217462 4.594222,-2.1326195 0.103214,-1.9532009 0.440828,-1.4502251 -2.948294,-1.389848 -1.851917,0.032992 -3.695348,0.2660798 -5.538266,0.451358 C 32.124618,-6.8849226 23.545807,-5.619135 15.007654,-4.1644485 9.4152436,-3.0055632 4.6606454,-2.3823238 -0.54736602,-0.13878658 -2.2377671,0.58941414 -3.8745421,1.4843054 -5.3531433,2.5804215 -5.6805297,2.8231192 -6.120267,3.527244 -5.7671967,3.730776 -4.2017248,4.6332129 -1.7518831,1.5746224 -0.46298363,2.6122203 4.4080911,1.0518196 9.2678892,-0.54715483 14.157869,-2.0478048 c 2.09289,-0.6422719 5.864604,-1.8230255 8.220422,-2.2881826 0.598206,-0.1181161 1.213163,-0.1242689 1.819744,-0.1864034 0.153143,0.2428433 0.5164,0.4471413 0.459427,0.7285299 -0.166074,0.8202382 -2.816391,4.76400124 -2.880536,4.8654159 -2.54976,4.0312428 -5.053557,8.0972898 -7.215326,12.354253 -1.188085,2.743727 -2.327949,4.657573 -2.585221,7.634389 -0.07062,0.817151 -0.06315,1.693253 0.260911,2.446718 0.223418,0.519469 0.712045,1.053018 1.273443,1.120811 0.800729,0.09669 5.091813,-1.863636 5.36037,-1.977778 2.147639,-0.904016 5.024593,-2.15959 7.228333,-2.905484 0.395875,-0.133991 3.890254,-1.473348 4.94044,-0.786998 0.869236,0.568087 0.658699,3.310361 0.671174,3.80061 0.02735,1.548647 0.05843,4.212078 0.152871,5.730476 0.06189,0.995085 0.119214,1.99303 0.266036,2.979164 0.143825,0.965993 0.463209,3.514185 1.684327,4.164533 0.563229,0.299969 1.276107,0.01971 1.914163,0.02957 1.275577,-0.661718 2.57716,-1.275554 3.826734,-1.985153 2.647789,-1.503614 6.641222,-4.225015 8.986825,-5.805419 8.238296,-5.55074 16.433699,-11.166222 24.590731,-16.835559 7.351803,-5.1715298 10.473148,-7.4543112 17.869816,-12.3286203 1.724874,-1.1366703 3.46846,-2.2461294 5.239168,-3.3099904 1.129125,-0.6783895 2.284769,-1.313657 3.456897,-1.9146961 0.421012,-0.215886 0.842602,-0.5271588 1.315712,-0.5325814 0.25732,-0.00295 0.38588,0.3405777 0.57882,0.5108665 0.50633,0.6564349 0.87895,1.2075157 1.54222,1.7441923 1.08438,0.8774057 1.88235,1.1955989 3.22767,1.6721735 2.02055,0.7157679 3.60714,1.0656234 5.71803,1.6079449 7.15393,1.69462408 0.33701,0.089629 7.8013,1.81663346 1.2089,0.27970173 2.41898,0.55457529 3.62468,0.84777384 1.87308,0.4554924 2.48539,1.2160242 4.03924,-0.44729085 0.20075,-0.21489096 -0.58793,0.0159404 -0.88189,0.0239104 -2.25659,0.0390667 -4.51323,0.0855643 -6.76846,0.17690973 -2.17206,0.0879769 -4.63077,0.20514922 -6.79127,0.41048492 -1.05055,0.099845 -2.09572,0.2499434 -3.14358,0.3749151 -1.15017,0.5029849 -2.38701,0.8420017 -3.45052,1.5089549 -0.28544,0.1789999 -0.48358,0.5878791 -0.42095,0.9189207 0.0707,0.3734242 0.4786,0.5937332 0.75626,0.8532365 0.71184,0.6652837 1.45637,0.995027 1.999,1.8364885 0.17341,0.2689177 0.20256,0.6070616 0.30385,0.9105924 -0.67862,1.460391 -0.12867,0.6657493 -1.79046,1.9101363 -1.19936,0.8981131 -2.51242,1.8970891 -3.58991,2.9322571 -0.63857,0.6135 -1.28261,1.231362 -1.82016,1.935063 -0.4918,0.643799 -0.83347,1.389502 -1.2502,2.084253 -0.14887,0.696362 -0.50486,1.379379 -0.44659,2.089086 0.1227,1.49447 1.45681,2.687711 2.4131,3.615635 2.18013,2.115468 4.64907,3.907847 6.95484,5.87719 1.18411,1.084713 2.62961,2.223384 3.5098,3.625115 0.19561,0.311523 0.4077,0.689139 0.33836,1.050393 -0.0614,0.319659 -0.43196,0.489175 -0.67537,0.705265 -0.40143,0.356354 -1.84675,1.405062 -2.21212,1.674551 -1.34604,0.968883 -2.72362,1.910368 -3.97698,3.000272 -0.50544,0.439515 -1.14054,1.025739 -1.5301,1.599099 -0.13469,0.198239 -0.21769,0.427048 -0.32654,0.640572 0.0351,0.107294 0.0448,0.226518 0.10519,0.321882 0.0396,0.06257 0.11987,0.08702 0.1806,0.129399 0.0375,0.02622 0.0966,0.03406 0.11421,0.07636 0.17704,0.426503 -1.22035,1.115476 -1.14909,1.243534 -1.8713,1.370978 -3.77071,2.715599 -5.551309,4.205012 -1.172876,0.981073 -3.070878,2.590652 -3.932552,3.935611 -0.329938,0.514991 -0.433827,1.14372 -0.65074,1.71558 0.30222,0.333184 0.499277,0.80881 0.906666,0.999556 1.415772,0.662884 4.002215,0.348258 5.314015,0.285591 4.01839,-0.191974 8.03132,-0.517594 12.05584,-0.572611 0.93431,0.01468 1.86909,0.01085 2.80293,0.04406 0.29333,0.01042 0.73272,-0.169241 0.87625,0.08679 0.13006,0.231997 -0.27842,0.45847 -0.46354,0.649433 -0.34299,0.353814 -0.73942,0.651602 -1.11121,0.975018 -0.18493,0.160864 -2.86811,2.476712 -2.96072,2.556653 -0.37442,0.325136 -2.4007,2.068624 -2.85156,2.515762 -0.18614,0.184602 -0.75808,0.625602 -0.49639,0.610028 1.16849,-0.06954 1.84382,-0.694076 2.57292,-1.411028 0.81871,-0.844603 1.68077,-1.673841 2.22933,-2.729296 0.34872,-0.455996 0.71965,-0.855372 1.16571,-1.222632 0.24361,-0.200575 0.56579,-0.320542 0.75158,-0.575609 0.10236,-0.140515 -0.62915,0.292987 -0.4803,0.203187 0.41468,-0.250171 0.8538,-0.457372 1.2807,-0.686059 1.84173,-0.865108 3.69386,-1.697122 5.63941,-2.309384 1.33048,-0.4187 2.78055,-0.810056 4.18979,-0.862899 0.50596,-0.01897 1.00885,0.08749 1.51327,0.131233 0.2596,0.198512 0.58675,0.331111 0.7788,0.59553 0.36631,0.504372 0.25365,1.180184 0.11931,1.719958 -0.31388,1.261086 -1.02623,2.341481 -1.85312,3.323797 -0.38363,0.423706 -0.75399,0.859816 -1.1509,1.271116 -0.46049,0.477189 -0.94224,0.933469 -1.42016,1.393195 -2.32627,2.237687 -4.75269,4.364919 -7.18188,6.489264 -0.86721,0.847365 -1.81397,1.679059 -2.34916,2.796849 -0.14011,0.292629 -0.12234,0.572477 -0.23929,0.868029 -0.0602,0.152009 -0.15018,0.290418 -0.22527,0.435626 -0.14742,0.159893 -0.61806,0.351642 -0.44226,0.479679 0.19969,0.145444 0.90203,-0.402706 0.67215,-0.312248 -0.46675,0.183663 -0.90865,0.430107 -1.38335,0.592103 -2.57447,0.878573 -5.30568,1.180735 -7.94274,1.797741 -2.43172,0.499912 -5.059675,1.022046 -7.475707,1.591852 -1.025101,0.241766 -2.072753,0.418423 -3.061705,0.780719 -1.129543,0.413806 -2.233078,0.919102 -3.265151,1.537103 -0.192355,0.115181 -0.494925,0.482645 -0.303909,0.600032 0.336529,0.20682 0.789004,-0.03964 1.183508,-0.05947 0.794935,-0.134514 1.592556,-0.254024 2.384806,-0.403545 1.991765,-0.375907 5.151628,-1.063731 7.045378,-1.504093 1.55338,-0.361211 7.01074,-1.661527 8.53279,-2.216274 1.57581,-0.574336 3.06577,-1.361324 4.59865,-2.041985 0.31496,-0.444453 1.11237,-0.815007 0.94488,-1.333355 -0.18583,-0.57508 -1.04334,-0.65156 -1.63136,-0.791138 -2.18753,-0.519261 -5.65473,-0.416214 -7.74455,-0.35533 -4.85006,0.141303 -5.931982,0.326302 -10.843099,0.789339 -4.752943,0.713737 -5.66838,0.51395 -10.112647,2.547316 -0.538477,0.246366 -1.121855,0.591584 -1.372248,1.128201 -0.111657,0.239298 0.348056,0.471588 0.60993,0.505529 1.044549,0.135374 4.877681,-0.4656 5.565863,-0.557784 2.056262,-0.403426 6.211977,-1.156647 8.17708,-1.800624 1.654439,-0.542171 3.284321,-1.177608 4.848681,-1.941746 0.89635,-0.437835 2.98008,-1.390655 2.60693,-2.958322 -0.11258,-0.472977 -0.64402,-0.728535 -0.96603,-1.092803 -1.2824,-0.964229 -1.81869,-1.491001 -3.38662,-2.102686 -0.774205,-0.302035 -1.586343,-0.504068 -2.398423,-0.680551 -2.753133,-0.598312 -5.518505,-0.663855 -8.313111,-0.365389 -1.593289,0.243252 -2.642298,0.335833 -4.155294,0.80064 -0.878856,0.269994 -2.308177,0.935344 -3.087632,1.357661 -2.482403,1.344996 -2.966987,1.684745 -5.103537,3.021095 -0.699704,0.467492 -1.409975,0.919543 -2.099112,1.402471 -1.587984,1.112817 -2.332638,1.740374 -3.858212,2.955161 -0.642784,0.511836 -1.295823,1.01111 -1.927246,1.536898 -0.288057,0.239863 -0.517861,0.551124 -0.829839,0.758926 -0.710613,0.473318 -1.481458,0.849294 -2.222186,1.273942 -0.887944,0.396287 -1.763577,0.821396 -2.663832,1.188865 -2.47731,1.011198 -4.929881,1.83083 -7.489339,2.625884 -5.20905,1.618102 -10.490157,2.997991 -15.820384,4.155646 -1.575422,0.328928 -3.147531,0.674135 -4.726265,0.98678 -1.108546,0.219533 -2.223379,0.406051 -3.334967,0.609629 -2.368302,0.433739 -2.308056,0.248512 -4.685832,1.599874 -0.116724,0.06634 -0.163978,0.232955 -0.165494,0.367205 -7.94e-4,0.08148 0.106164,0.12364 0.159247,0.185462 0.642742,-0.341828 1.313664,-0.635254 1.928225,-1.02548 0.219448,-0.139342 0.07255,-0.509045 -0.03251,-0.627906 -0.170092,-0.192432 -0.379365,-0.351645 -0.599379,-0.48414 C 28.03019,83.546659 26.528005,82.994349 25.45182,82.548077 21.23938,80.922522 17.004988,79.3598 12.757876,77.826733 8.9484925,76.451669 4.9073237,75.071309 1.148361,73.563898 -0.51488878,72.896905 -2.1444398,72.148772 -3.7908403,71.44121 c -0.9537049,-0.518451 -1.9873224,-0.911278 -2.8611144,-1.555353 -0.2751251,-0.202795 -0.5866662,-0.58225 -0.4789638,-0.906627 0.1380529,-0.415785 0.6824506,-0.551122 1.044761,-0.797427 0.5326353,-0.362099 1.0933104,-0.681149 1.6373271,-1.025912 C -1.8786821,65.5271 -2.792661,66.120066 -0.15158296,64.271168 1.6090701,62.726384 2.1240174,62.481332 3.4197073,60.586323 3.9257395,59.846225 4.7381683,58.635264 4.4796916,57.587625 4.3727928,57.154349 3.5357255,56.657517 3.2169843,56.436148 2.9832477,56.288214 2.3509157,55.912413 2.1155656,55.685917 c -0.057615,-0.05545 -0.04092,-0.228246 -0.1184336,-0.208611 -0.4432121,0.112273 -0.7966993,0.545907 -1.25379445,0.55622 -0.973149,0.02196 4.64557135,-1.839277 2.66596625,-1.191693 0.7243763,-0.2359 1.4444086,-0.485582 2.1731285,-0.707705 1.6557781,-0.504696 3.0169114,-0.878226 4.7097897,-1.217428 1.320286,-0.264543 1.938276,-0.368175 3.179817,-0.385111 0.157525,-0.0021 0.314046,0.02551 0.471069,0.03827 0,0 1.613394,-1.142595 1.613394,-1.142595 z" />
    <path
       style="fill:#ff5555;fill-rule:evenodd;stroke:none;stroke-width:0.2;stroke-linecap:round;stroke-linejoin:bevel;stroke-miterlimit:4;stroke-dasharray:0.2, 0.2;stroke-dashoffset:0;paint-order:stroke fill markers"
       id="path1749"
       d="M 54.126468,-14.761175 C 52.180267,-1.8008576 49.746767,11.080179 47.6589,24.017691 45.980598,34.417322 45.328715,39.20028 43.843913,49.458567 c -1.110969,8.508556 -2.312699,17.004736 -3.533735,25.498036 -0.824751,5.736839 -0.454425,3.31747 -1.215628,8.065727 0,0 1.232355,-0.609327 1.232355,-0.609327 v 0 c 0.132641,-1.655323 0.525518,-6.581259 0.631423,-7.777054 0.745958,-8.422711 1.656566,-16.832548 2.921566,-25.195067 0.5866,-4.052691 1.152527,-8.108428 1.759799,-12.158075 1.408779,-9.394555 2.57519,-16.750441 4.209616,-26.084638 0.651285,-3.7194934 1.299178,-7.4403272 2.038443,-11.1433382 1.262168,-6.3222736 2.110808,-9.5482288 3.565742,-15.4625438 0,0 -1.327026,0.646538 -1.327026,0.646538 z" />
    <path
       style="fill:#ff5555;fill-rule:evenodd;stroke:none;stroke-width:0.2;stroke-linecap:round;stroke-linejoin:bevel;stroke-miterlimit:4;stroke-dasharray:0.2, 0.2;stroke-dashoffset:0;paint-order:stroke fill markers"
       id="path1751"
       d="m -4.7428856,56.313083 c 14.5912341,-0.0092 29.1621916,0.94543 43.7231086,1.763342 18.865051,1.059685 18.564849,1.036227 37.103314,2.0487 15.389672,0.794142 30.785863,1.448919 46.182283,2.094458 0,0 0.0325,-0.02342 0.0325,-0.02342 v 0 C 106.90194,61.550639 91.505761,60.895872 76.1161,60.101749 57.585284,59.089699 57.869788,59.1123 39.012791,58.053059 33.375922,57.736422 27.739321,57.415006 22.102596,57.095839 17.777526,56.850943 13.449836,56.648572 9.1274031,56.360874 7.4764558,56.250987 -0.52495642,55.561467 -3.3564528,55.31913 c 0,0 -1.3864328,0.993966 -1.3864328,0.993966 z" />
    <path
       style="fill:#ff5555;fill-rule:evenodd;stroke:none;stroke-width:0.2;stroke-linecap:round;stroke-linejoin:bevel;stroke-miterlimit:4;stroke-dasharray:0.2, 0.2;stroke-dashoffset:0;paint-order:stroke fill markers"
       id="path1753"
       d="m 35.985674,62.514683 c -0.425989,0.366228 -0.862171,0.720926 -1.277966,1.098688 -1.368811,1.243597 -3.058951,2.911853 -4.36168,4.168804 -2.442887,2.357045 -4.894218,4.70458 -7.361763,7.03577 -0.683147,0.641067 -1.366293,1.282137 -2.04944,1.923204 0,0 1.352591,-0.556186 1.352591,-0.556186 v 0 c 0.654212,-0.629153 1.308423,-1.258306 1.962634,-1.887458 2.45007,-2.336467 4.880887,-4.693214 7.335125,-7.025275 1.536012,-1.45955 3.043486,-2.902612 4.655219,-4.276741 0.484074,-0.412713 0.994728,-0.793189 1.492094,-1.189784 0,0 -1.746814,0.708978 -1.746814,0.708978 z" />
    <path
       style="fill:#ff5555;fill-rule:evenodd;stroke:none;stroke-width:0.2;stroke-linecap:round;stroke-linejoin:bevel;stroke-miterlimit:4;stroke-dasharray:0.2, 0.2;stroke-dashoffset:0;paint-order:stroke fill markers"
       id="path1755"
       d="M 16.025894,77.349921 C 14.080759,73.757527 12.739022,69.880805 11.359642,66.047773 10.484147,63.478044 10.055803,62.296259 9.2820118,59.745625 9.0201283,58.882385 8.7841782,58.011488 8.5352614,57.144419 c 0,0 -1.2945906,0.708528 -1.2945906,0.708528 v 0 c 0.9502843,2.955361 1.9341351,5.899137 2.9922292,8.818083 0.401353,1.153025 0.812364,2.302733 1.204059,3.459076 0.930738,2.747674 1.759648,5.533768 2.881403,8.212965 0,0 1.707532,-0.99315 1.707532,-0.99315 z" />
    <path
       style="fill:#ff5555;fill-rule:evenodd;stroke:none;stroke-width:0.2;stroke-linecap:round;stroke-linejoin:bevel;stroke-miterlimit:4;stroke-dasharray:0.2, 0.2;stroke-dashoffset:0;paint-order:stroke fill markers"
       id="path1757"
       d="m -2.9353081,46.471839 c -0.00785,0.217676 -0.055009,0.437497 -0.023548,0.653032 0.1839095,1.259916 0.7958675,3.080239 1.1703728,4.162168 0.398326,1.150742 0.82718595,2.290837 1.26186456,3.428346 1.2819056,3.354621 1.54374294,3.8914 2.92507244,7.145991 1.1417048,2.449283 2.3167651,4.904484 3.9046641,7.10379 0.3173272,0.439513 0.6813999,0.843307 1.0220999,1.26496 0,0 1.4440786,-0.870133 1.4440786,-0.870133 v 0 C 8.4029869,68.959994 8.0120185,68.581251 7.6703668,68.159994 5.9658879,66.058374 4.6924473,63.657921 3.505605,61.239254 2.1658124,58.179313 1.7097431,57.297846 0.60011566,54.093935 0.19907999,52.935996 -0.17026834,51.766297 -0.49807822,50.585536 -0.87026519,49.244932 -1.2451834,47.716267 -1.2799341,46.290057 c -0.00545,-0.223617 0.07061,-0.441758 0.1059146,-0.662638 0,0 -1.7612886,0.84442 -1.7612886,0.84442 z" />
    <path
       style="fill:#ff5555;fill-rule:evenodd;stroke:none;stroke-width:0.2;stroke-linecap:round;stroke-linejoin:bevel;stroke-miterlimit:4;stroke-dasharray:0.2, 0.2;stroke-dashoffset:0;paint-order:stroke fill markers"
       id="path1759"
       d="m 2.1405255,53.436292 c -0.4983763,0.615794 -1.0149902,1.192011 -1.41402809,1.886849 -0.89721072,1.562301 -1.55640173,3.329059 -2.21576411,5.001408 -0.5208416,1.311982 -0.9587816,2.654012 -1.403503,3.992907 0,0 1.6046046,-0.756365 1.6046046,-0.756365 v 0 c 0.39996069,-1.320747 0.80380923,-2.641107 1.29725552,-3.930914 0.66604072,-1.717381 1.32416078,-3.445153 2.32703018,-5.00352 0.4634327,-0.720129 1.0639358,-1.327467 1.6256269,-1.966245 0,0 -1.821222,0.77588 -1.821222,0.77588 z" />
  </g>
</svg>
